<svg width="30" height="35" fill="none" xmlns="http://www.w3.org/2000/svg"><g clip-path="url(#a)"><path d="M29.218 27.276a19.032 19.032 0 0 1-1.882 3.383c-.99 1.411-1.8 2.388-2.424 2.93-.968.89-2.005 1.346-3.115 1.372-.797 0-1.759-.227-2.878-.687-1.123-.458-2.155-.685-3.098-.685-.99 0-2.05.227-3.186.685-1.137.46-2.052.7-2.753.724-1.064.045-2.126-.424-3.185-1.41-.677-.589-1.522-1.6-2.536-3.032-1.087-1.53-1.98-3.304-2.68-5.326C.73 23.046.353 20.931.353 18.883c0-2.345.507-4.368 1.523-6.064a8.928 8.928 0 0 1 3.187-3.224 8.575 8.575 0 0 1 4.31-1.216c.846 0 1.955.262 3.333.776 1.375.516 2.257.777 2.644.777.29 0 1.27-.306 2.932-.916 1.572-.565 2.898-.8 3.985-.707 2.944.238 5.157 1.398 6.628 3.49-2.634 1.595-3.936 3.83-3.91 6.697.023 2.234.833 4.092 2.426 5.568a7.975 7.975 0 0 0 2.424 1.59c-.195.564-.4 1.104-.618 1.622ZM22.464.701c0 1.75-.64 3.384-1.914 4.897-1.538 1.799-3.399 2.838-5.416 2.674a5.451 5.451 0 0 1-.04-.664c0-1.68.73-3.478 2.03-4.949.648-.744 1.473-1.363 2.473-1.857.998-.486 1.943-.755 2.83-.801.026.234.037.468.037.7Z" fill="#2D2D2D"/></g><defs><clipPath id="a"><path fill="#fff" transform="translate(.354)" d="M0 0h29.481v35H0z"/></clipPath></defs></svg>