<svg width="35" height="36" fill="none" xmlns="http://www.w3.org/2000/svg"><path d="M28.94 10.771a38.614 38.614 0 0 0-7.6-1.16c-1.26-.08-2.64-.12-4.19-.11-1.55.01-2.93 0-4.18.11a38.614 38.614 0 0 0-7.6 1.16c-2.65.7-4 9.94-4.36 12.74a1 1 0 0 0 .66 1.09s.8.32 2.22.73a44.57 44.57 0 0 0 13 1.91h.55c4.405.01 8.786-.633 13-1.91 1.42-.41 2.23-.73 2.23-.73a1 1 0 0 0 .66-1.09c-.37-2.83-1.73-12.07-4.39-12.74Z" fill="#2D2D2D"/><path d="M17.18 13.382c5.655 0 10.24-.627 10.24-1.4 0-.774-4.585-1.4-10.24-1.4s-10.24.626-10.24 1.4c0 .773 4.584 1.4 10.24 1.4ZM10.621 17.871v-.774h1.446v4.374h-.864v-3.6h-.582Zm2.54 2.652c.384-.32.69-.586.918-.798.228-.216.418-.44.57-.672.152-.232.228-.46.228-.684 0-.204-.048-.364-.144-.48-.096-.116-.244-.174-.444-.174s-.354.068-.462.204c-.108.132-.164.314-.168.546h-.816c.016-.48.158-.844.426-1.092.272-.248.616-.372 1.032-.372.456 0 .806.122 1.05.366.244.24.366.558.366.954 0 .312-.084.61-.252.894-.168.284-.36.532-.576.744-.216.208-.498.46-.846.756h1.77v.696H12.85v-.624l.312-.264Zm5.245.948-1.128-1.416v1.416h-.84v-4.44h.84v2.526l1.116-1.41h1.092l-1.464 1.668 1.476 1.656h-1.092Zm2.838-3.378c.248 0 .466.05.654.15.188.096.336.222.444.378v-.474h.846v3.348c0 .308-.062.582-.186.822-.124.244-.31.436-.558.576-.248.144-.548.216-.9.216-.472 0-.86-.11-1.164-.33-.3-.22-.47-.52-.51-.9h.834a.612.612 0 0 0 .282.36.992.992 0 0 0 .534.138.815.815 0 0 0 .594-.222c.152-.144.228-.364.228-.66v-.516a1.27 1.27 0 0 1-.45.39 1.316 1.316 0 0 1-.648.156c-.28 0-.536-.072-.768-.216a1.53 1.53 0 0 1-.552-.606 2 2 0 0 1-.198-.906c0-.336.066-.634.198-.894.136-.26.318-.46.546-.6.232-.14.49-.21.774-.21Zm1.098 1.716c0-.204-.04-.378-.12-.522a.82.82 0 0 0-.324-.336.85.85 0 0 0-.438-.12.85.85 0 0 0-.756.45c-.08.144-.12.316-.12.516s.04.376.12.528a.921.921 0 0 0 .324.342c.136.08.28.12.432.12a.884.884 0 0 0 .438-.114.873.873 0 0 0 .324-.336c.08-.148.12-.324.12-.528Z" fill="#fff"/></svg>